# Blender v2.92.0 OBJ File: ''
# www.blender.org
mtllib input6.mtl
o Cube
v 1.991601 1.000000 -1.000000
v 1.991601 -1.000000 -1.000000
v 1.991601 1.000000 1.000000
v 1.991601 -1.000000 1.000000
v -1.992222 1.000000 -1.000000
v -1.992222 -1.000000 -1.000000
v -1.992222 1.000000 1.000000
v -1.992222 -1.000000 1.000000
v -1.992222 0.000000 1.823924
v 1.991601 0.000000 1.823924
v 1.991601 0.000000 -1.763834
v -1.992222 0.000000 -1.763834
vt 0.375000 0.000000
vt 0.500000 0.000000
vt 0.625000 0.000000
vt 0.625000 0.250000
vt 0.500000 0.250000
vt 0.375000 0.250000
vt 0.625000 0.500000
vt 0.625000 0.750000
vt 0.375000 0.500000
vt 0.500000 0.500000
vt 0.500000 0.750000
vt 0.375000 0.750000
vn -1.0000 -0.0000 0.0000
vn 0.0000 1.0000 0.0000
vn 1.0000 0.0000 0.0000
vn 0.0000 -0.6070 -0.7947
vn 0.0000 0.6070 -0.7947
vn 0.0000 -1.0000 0.0000
vn 0.0000 -0.6359 0.7718
vn 0.0000 0.6359 0.7718
usemtl Material
s off
f 8/1/1 9/2/1 7/3/1 5/4/1 12/5/1 6/6/1
f 1/7/2 5/4/2 7/3/2 3/8/2
f 2/9/3 11/10/3 1/7/3 3/8/3 10/11/3 4/12/3
f 11/10/4 2/9/4 6/6/4 12/5/4
f 12/5/5 5/4/5 1/7/5 11/10/5
f 6/6/6 2/9/6 4/12/6 8/1/6
f 10/11/7 9/2/7 8/1/7 4/12/7
f 9/2/8 10/11/8 3/8/8 7/3/8
