# Blender v2.92.0 OBJ File: ''
# www.blender.org
mtllib stupid.mtl
o Cube_Cube.001
v -1.000000 1.000000 -1.000000
v -1.000000 1.000000 1.000000
v 1.000000 1.000000 -1.000000
v 1.000000 -1.000000 -1.000000
v 1.000000 -0.017836 1.000000
v 1.000000 -0.499254 1.000000
v 0.651595 -1.000000 1.000000
v 1.000000 -1.000000 0.627211
v 0.780722 1.000000 1.000000
v 0.268414 -1.000000 1.000000
v 0.538702 -1.000000 -1.000000
v -1.000000 0.959680 -1.000000
vt 0.375000 0.000000
vt 0.625000 0.000000
vt 0.625000 0.222590
vt 0.375000 0.250000
vt 0.625000 0.377229
vt 0.625000 0.437407
vt 0.578401 0.500000
vt 0.375000 0.500000
vt 0.625000 0.543551
vt 0.625000 0.591448
vt 0.375000 0.557662
vt 0.375000 1.000000
vt 0.375000 0.994960
vt 0.625000 1.000000
vt 0.687593 0.500000
vt 0.747771 0.500000
vt 0.875000 0.527410
vt 0.875000 0.750000
vn 0.0000 1.0000 0.0000
vn 1.0000 0.0000 0.0000
vn 0.0000 -1.0000 0.0000
vn 0.0000 0.0000 -1.0000
vn -0.8444 -0.5355 0.0108
vn -0.7821 -0.6141 -0.1057
vn 0.6513 -0.4531 0.6087
vn 0.0000 0.0000 1.0000
vn 0.9720 0.2094 0.1066
vn -1.0000 0.0000 0.0000
usemtl None
s off
f 1/1/1 2/2/1 9/3/1 3/4/1
f 3/4/2 5/5/2 6/6/2 8/7/2 4/8/2
f 4/8/3 8/7/3 7/9/3 10/10/3 11/11/3
f 1/12/4 3/4/4 4/8/4 11/11/4 12/13/4
f 12/13/5 10/10/5 2/14/5
f 12/13/6 11/11/6 10/10/6
f 8/7/7 6/15/7 7/9/7
f 7/9/8 6/15/8 5/16/8 9/17/8 2/18/8 10/10/8
f 3/4/9 9/17/9 5/5/9
f 12/13/10 2/14/10 1/12/10
